<svg width="31" height="21" viewBox="0 0 31 21" fill="none" xmlns="http://www.w3.org/2000/svg">
<path d="M30.8127 9.70156C27.8941 3.91508 22.116 0 15.5 0C8.88396 0 3.10428 3.91781 0.187263 9.70211C0.064146 9.94958 0 10.223 0 10.5003C0 10.7776 0.064146 11.051 0.187263 11.2984C3.1059 17.0849 8.88396 21 15.5 21C22.116 21 27.8957 17.0822 30.8127 11.2979C30.9359 11.0504 31 10.777 31 10.4997C31 10.2224 30.9359 9.94903 30.8127 9.70156ZM15.5 18.375C13.9672 18.375 12.4688 17.9131 11.1943 17.0478C9.91984 16.1825 8.9265 14.9526 8.33992 13.5136C7.75334 12.0747 7.59986 10.4913 7.8989 8.96366C8.19794 7.43606 8.93605 6.03287 10.0199 4.93153C11.1038 3.8302 12.4847 3.08017 13.988 2.77632C15.4914 2.47246 17.0497 2.62841 18.4658 3.22445C19.8819 3.82049 21.0923 4.82985 21.9439 6.12488C22.7955 7.41992 23.25 8.94247 23.25 10.5C23.2505 11.5343 23.0504 12.5586 22.6611 13.5142C22.2718 14.4699 21.7009 15.3382 20.9812 16.0696C20.2614 16.8009 19.4069 17.381 18.4664 17.7766C17.5259 18.1722 16.5179 18.3755 15.5 18.375ZM15.5 5.25C15.0388 5.25655 14.5807 5.32627 14.1378 5.45727C14.5028 5.96131 14.678 6.58158 14.6315 7.20559C14.5851 7.82961 14.3201 8.41605 13.8846 8.85855C13.4491 9.30106 12.872 9.57033 12.2579 9.61754C11.6438 9.66475 11.0333 9.48676 10.5373 9.11586C10.2548 10.1733 10.3058 11.2941 10.6831 12.3205C11.0603 13.347 11.7449 14.2274 12.6404 14.8378C13.5358 15.4482 14.5971 15.7579 15.6749 15.7233C16.7527 15.6887 17.7926 15.3116 18.6484 14.6449C19.5041 13.9783 20.1326 13.0558 20.4454 12.0072C20.7581 10.9586 20.7394 9.83674 20.3918 8.79953C20.0442 7.76233 19.3853 6.86199 18.5078 6.22525C17.6302 5.58851 16.5783 5.24742 15.5 5.25Z" fill="black"/>
</svg>
